<svg width="168" height="206" viewBox="0 0 168 206" fill="none" xmlns="http://www.w3.org/2000/svg">
<path d="M72.7896 116.29H68.8696V118.614H72.6776V120.462H68.8696V124.242H66.9376V114.442H72.7896V116.29ZM75.0093 116.402C74.7107 116.402 74.4493 116.295 74.2253 116.08C74.0107 115.856 73.9033 115.595 73.9033 115.296C73.9033 114.998 74.0107 114.736 74.2253 114.512C74.4493 114.288 74.7107 114.176 75.0093 114.176C75.3173 114.176 75.5787 114.288 75.7933 114.512C76.0173 114.736 76.1293 114.998 76.1293 115.296C76.1293 115.595 76.0173 115.856 75.7933 116.08C75.5787 116.295 75.3173 116.402 75.0093 116.402ZM74.1133 124.242V117.242H75.9193V124.242H74.1133ZM82.9343 117.242H84.6983V123.906C84.6983 124.989 84.339 125.815 83.6203 126.384C82.911 126.954 82.0523 127.238 81.0443 127.238C80.2883 127.238 79.621 127.094 79.0423 126.804C78.473 126.515 78.0343 126.09 77.7263 125.53L79.2663 124.648C79.621 125.302 80.2323 125.628 81.1003 125.628C81.6696 125.628 82.1176 125.479 82.4443 125.18C82.771 124.882 82.9343 124.457 82.9343 123.906V123.15C82.4023 123.86 81.6556 124.214 80.6943 124.214C79.705 124.214 78.8743 123.869 78.2023 123.178C77.5396 122.478 77.2083 121.629 77.2083 120.63C77.2083 119.641 77.5443 118.796 78.2163 118.096C78.8883 117.396 79.7143 117.046 80.6943 117.046C81.6556 117.046 82.4023 117.401 82.9343 118.11V117.242ZM79.5603 122.016C79.9336 122.371 80.405 122.548 80.9743 122.548C81.5436 122.548 82.0103 122.371 82.3743 122.016C82.7476 121.652 82.9343 121.19 82.9343 120.63C82.9343 120.08 82.7476 119.627 82.3743 119.272C82.0103 118.908 81.5436 118.726 80.9743 118.726C80.405 118.726 79.9336 118.908 79.5603 119.272C79.1963 119.627 79.0143 120.08 79.0143 120.63C79.0143 121.19 79.1963 121.652 79.5603 122.016ZM94.078 117.046C94.8807 117.046 95.52 117.308 95.996 117.83C96.4813 118.353 96.724 119.053 96.724 119.93V124.242H94.918V120.056C94.918 119.636 94.8153 119.31 94.61 119.076C94.4047 118.843 94.1153 118.726 93.742 118.726C93.3313 118.726 93.0093 118.862 92.776 119.132C92.552 119.403 92.44 119.795 92.44 120.308V124.242H90.634V120.056C90.634 119.636 90.5313 119.31 90.326 119.076C90.1207 118.843 89.8313 118.726 89.458 118.726C89.0567 118.726 88.7347 118.862 88.492 119.132C88.2587 119.403 88.142 119.795 88.142 120.308V124.242H86.336V117.242H88.142V117.984C88.562 117.359 89.2107 117.046 90.088 117.046C90.9467 117.046 91.5813 117.382 91.992 118.054C92.4587 117.382 93.154 117.046 94.078 117.046ZM103.578 117.242H105.384V124.242H103.578V123.416C103.037 124.098 102.276 124.438 101.296 124.438C100.363 124.438 99.5599 124.084 98.8879 123.374C98.2252 122.656 97.8939 121.778 97.8939 120.742C97.8939 119.706 98.2252 118.834 98.8879 118.124C99.5599 117.406 100.363 117.046 101.296 117.046C102.276 117.046 103.037 117.387 103.578 118.068V117.242ZM100.246 122.17C100.61 122.534 101.072 122.716 101.632 122.716C102.192 122.716 102.654 122.534 103.018 122.17C103.391 121.797 103.578 121.321 103.578 120.742C103.578 120.164 103.391 119.692 103.018 119.328C102.654 118.955 102.192 118.768 101.632 118.768C101.072 118.768 100.61 118.955 100.246 119.328C99.8819 119.692 99.6999 120.164 99.6999 120.742C99.6999 121.321 99.8819 121.797 100.246 122.17Z" fill="#828282"/>
<g clip-path="url(#clip0_1_204)">
<path d="M72.0513 89.6605C80.0898 89.6605 86.6099 83.0208 86.6099 74.8348V60.0091H72.0513C64.0127 60.0091 57.4926 66.6488 57.4926 74.8348C57.4926 83.0208 64.0127 89.6605 72.0513 89.6605Z" fill="#0ACF83"/>
<path d="M57.4926 45.1652C57.4926 36.9793 64.0127 30.3395 72.0513 30.3395H86.6099V60.0091H72.0513C64.0127 59.9909 57.4926 53.3512 57.4926 45.1652Z" fill="#A259FF"/>
<path d="M57.4926 15.4956C57.4926 7.30965 64.0127 0.669922 72.0513 0.669922H86.6099V30.3395H72.0513C64.0127 30.3395 57.4926 23.6816 57.4926 15.4956Z" fill="#F24E1E"/>
<path d="M86.6277 0.669922H101.186C109.225 0.669922 115.745 7.30965 115.745 15.4956C115.745 23.6816 109.225 30.3213 101.186 30.3213H86.6277V0.669922Z" fill="#FF7262"/>
<path d="M115.745 45.1652C115.745 53.3512 109.225 59.9909 101.186 59.9909C93.1479 59.9909 86.6278 53.3512 86.6278 45.1652C86.6278 36.9793 93.1479 30.3395 101.186 30.3395C109.225 30.3395 115.745 36.9793 115.745 45.1652Z" fill="#1ABCFE"/>
</g>
<path d="M12.9251 182.86C13.225 181.94 14.5269 181.94 14.8267 182.86L16.5778 188.234C16.7119 188.646 17.0957 188.924 17.5286 188.924H23.1894C24.1588 188.924 24.5611 190.165 23.7761 190.734L19.2012 194.049C18.8498 194.304 18.7027 194.756 18.8371 195.168L20.5857 200.535C20.8857 201.456 19.8325 202.223 19.0482 201.655L14.4626 198.332C14.1126 198.079 13.6392 198.079 13.2892 198.332L8.70366 201.655C7.91941 202.223 6.86612 201.456 7.16614 200.535L8.91471 195.168C9.04917 194.756 8.90209 194.304 8.55063 194.049L3.97575 190.734C3.19075 190.165 3.59308 188.924 4.56247 188.924H10.2232C10.6562 188.924 11.0399 188.646 11.174 188.234L12.9251 182.86Z" fill="#070707"/>
<path d="M48.0221 182.86C48.322 181.94 49.6239 181.94 49.9237 182.86L51.6748 188.234C51.8089 188.646 52.1927 188.924 52.6256 188.924H58.2864C59.2558 188.924 59.6581 190.165 58.8731 190.734L54.2982 194.049C53.9468 194.304 53.7997 194.756 53.9341 195.168L55.6827 200.535C55.9827 201.456 54.9294 202.223 54.1452 201.655L49.5596 198.332C49.2096 198.079 48.7362 198.079 48.3862 198.332L43.8006 201.655C43.0164 202.223 41.9631 201.456 42.2631 200.535L44.0117 195.168C44.1462 194.756 43.9991 194.304 43.6476 194.049L39.0727 190.734C38.2877 190.165 38.6901 188.924 39.6595 188.924H45.3202C45.7531 188.924 46.1369 188.646 46.271 188.234L48.0221 182.86Z" fill="#070707"/>
<path d="M83.1193 182.86C83.4191 181.94 84.721 181.94 85.0209 182.86L86.772 188.234C86.9061 188.646 87.2899 188.924 87.7228 188.924H93.3835C94.3529 188.924 94.7553 190.165 93.9703 190.734L89.3954 194.049C89.0439 194.304 88.8968 194.756 89.0313 195.168L90.7799 200.535C91.0799 201.456 90.0266 202.223 89.2423 201.655L84.6568 198.332C84.3068 198.079 83.8334 198.079 83.4834 198.332L78.8978 201.655C78.1136 202.223 77.0603 201.456 77.3603 200.535L79.1089 195.168C79.2433 194.756 79.0962 194.304 78.7448 194.049L74.1699 190.734C73.3849 190.165 73.7872 188.924 74.7566 188.924H80.4174C80.8503 188.924 81.2341 188.646 81.3682 188.234L83.1193 182.86Z" fill="#070707"/>
<path d="M118.216 182.86C118.516 181.94 119.818 181.94 120.118 182.86L121.869 188.234C122.003 188.646 122.387 188.924 122.82 188.924H128.481C129.45 188.924 129.852 190.165 129.067 190.734L124.493 194.049C124.141 194.304 123.994 194.756 124.128 195.168L125.877 200.535C126.177 201.456 125.124 202.223 124.34 201.655L119.754 198.332C119.404 198.079 118.931 198.079 118.581 198.332L113.995 201.655C113.211 202.223 112.157 201.456 112.457 200.535L114.206 195.168C114.34 194.756 114.193 194.304 113.842 194.049L109.267 190.734C108.482 190.165 108.884 188.924 109.854 188.924H115.515C115.947 188.924 116.331 188.646 116.465 188.234L118.216 182.86Z" fill="#070707"/>
<path d="M153.314 182.86C153.613 181.94 154.915 181.94 155.215 182.86L156.966 188.234C157.1 188.646 157.484 188.924 157.917 188.924H163.578C164.547 188.924 164.95 190.165 164.165 190.734L159.59 194.049C159.238 194.304 159.091 194.756 159.226 195.168L160.974 200.535C161.274 201.456 160.221 202.223 159.437 201.655L154.851 198.332C154.501 198.079 154.028 198.079 153.678 198.332L149.092 201.655C148.308 202.223 147.255 201.456 147.555 200.535L149.303 195.168C149.438 194.756 149.291 194.304 148.939 194.049L144.364 190.734C143.579 190.165 143.982 188.924 144.951 188.924H150.612C151.045 188.924 151.428 188.646 151.563 188.234L153.314 182.86Z" fill="#E5E5E5"/>
<defs>
<clipPath id="clip0_1_204">
<rect width="58.2524" height="88.9906" fill="white" transform="translate(57.4926 0.669922)"/>
</clipPath>
</defs>
</svg>
