<?xml version="1.0" standalone="no"?>
<!DOCTYPE svg PUBLIC "-//W3C//DTD SVG 20010904//EN"
 "http://www.w3.org/TR/2001/REC-SVG-20010904/DTD/svg10.dtd">
<svg version="1.0" xmlns="http://www.w3.org/2000/svg"
 width="147.000000pt" height="147.000000pt" viewBox="0 0 147.000000 147.000000"
 preserveAspectRatio="xMidYMid meet">
<metadata>
Created by potrace 1.14, written by Peter Selinger 2001-2017
</metadata>
<g transform="translate(0.000000,147.000000) scale(0.100000,-0.100000)"
fill="#000000" stroke="none">
<path d="M664 1377 c-32 -35 -74 -69 -91 -76 -24 -10 -42 -30 -68 -77 -20 -35
-40 -66 -45 -69 -27 -16 -1 -19 90 -11 55 5 100 12 100 17 0 4 -13 17 -30 29
-16 12 -30 30 -30 41 0 11 -5 29 -10 40 -17 31 22 24 55 -11 16 -16 23 -30 16
-30 -9 0 -8 -6 3 -22 9 -12 16 -30 16 -40 0 -15 9 -18 50 -18 28 0 50 5 50 10
0 6 8 5 20 -2 37 -23 35 4 -3 35 -20 18 -37 38 -37 45 0 7 -11 29 -25 50 -24
36 -24 38 -8 84 8 27 20 45 25 41 6 -3 9 0 6 7 -9 28 -26 19 -84 -43z m-4 -27
c0 -5 -5 -10 -11 -10 -5 0 -7 5 -4 10 3 6 8 10 11 10 2 0 4 -4 4 -10z"/>
<path d="M762 1360 c3 -8 17 -21 33 -29 29 -14 29 -14 8 -28 -19 -13 -20 -18
-9 -52 6 -21 19 -45 29 -55 9 -10 17 -24 17 -32 0 -8 9 -14 20 -14 16 0 19 5
14 28 -3 15 -1 40 6 56 10 28 11 28 30 11 11 -10 20 -26 20 -35 0 -22 38 -57
72 -65 l27 -7 -19 48 c-12 34 -25 51 -41 55 -15 4 -18 7 -7 8 32 2 48 -11 54
-46 7 -36 30 -56 77 -67 35 -8 34 1 -5 42 l-33 33 35 -15 c19 -8 39 -23 45
-33 13 -24 22 -30 73 -50 37 -14 45 -14 53 -2 7 11 15 8 39 -19 17 -18 30 -29
30 -24 0 5 -13 21 -29 36 -21 20 -39 28 -65 28 -30 0 -39 5 -51 29 -18 34 -19
53 -2 43 8 -5 8 -2 -2 9 -7 9 -23 17 -34 17 -12 0 -43 21 -69 47 -41 41 -51
46 -66 35 -9 -6 -32 -18 -50 -27 -18 -8 -31 -19 -27 -25 10 -16 -11 -12 -25 5
-7 8 -21 15 -31 15 -10 0 -19 9 -21 22 -2 14 -15 25 -43 35 -21 7 -43 19 -48
26 -6 9 -7 8 -5 -3z m348 -132 c0 -17 -24 -6 -57 27 -19 19 -31 40 -28 46 7
11 85 -56 85 -73z"/>
<path d="M394 1303 c-10 -21 -16 -45 -15 -53 1 -12 0 -12 -7 -2 -7 10 -12 10
-22 -4 -8 -9 -25 -20 -37 -25 -13 -5 -31 -26 -40 -46 -10 -21 -30 -57 -45 -80
l-28 -42 43 24 c23 13 74 32 113 42 72 19 102 41 133 100 16 32 14 36 -9 13
-25 -25 -43 -26 -35 -1 4 13 0 23 -11 29 -12 7 -15 19 -12 46 5 47 -7 46 -28
-1z m-80 -108 c-4 -8 -8 -15 -10 -15 -2 0 -4 7 -4 15 0 8 4 15 10 15 5 0 7 -7
4 -15z"/>
<path d="M460 1305 c13 -14 26 -25 28 -25 3 0 -5 11 -18 25 -13 14 -26 25 -28
25 -3 0 5 -11 18 -25z"/>
<path d="M1200 1170 c6 -11 16 -20 22 -20 6 0 3 9 -7 20 -10 11 -20 20 -22 20
-2 0 1 -9 7 -20z"/>
<path d="M905 1160 c-3 -5 1 -10 10 -10 9 0 13 5 10 10 -3 6 -8 10 -10 10 -2
0 -7 -4 -10 -10z"/>
<path d="M432 1105 c-83 -15 -143 -37 -184 -67 -23 -16 -27 -23 -17 -34 7 -8
9 -17 5 -21 -3 -3 -6 -1 -6 5 0 18 -87 15 -94 -3 -5 -14 1 -128 10 -171 5 -27
35 -40 49 -22 5 7 19 20 30 28 18 14 19 14 7 -2 -36 -45 108 -178 211 -195 59
-9 118 15 172 71 28 28 60 63 72 79 38 46 72 38 126 -33 67 -86 115 -115 191
-115 73 0 129 29 193 98 54 59 67 83 48 91 -12 4 -15 23 -13 93 l2 88 3 -82
c3 -74 7 -86 30 -109 41 -41 56 -24 67 79 4 48 6 93 2 102 -3 10 -18 15 -43
15 -27 0 -42 6 -51 20 -15 25 -71 53 -147 75 -82 24 -553 31 -663 10z m653
-70 c75 -15 115 -62 115 -135 0 -26 -6 -33 -37 -47 -21 -8 -67 -40 -103 -71
l-65 -56 45 48 45 47 -30 -7 c-16 -3 -53 -28 -80 -55 -61 -59 -96 -67 -40 -8
l40 40 -66 -7 -66 -6 -13 32 c-20 48 -48 70 -91 70 -43 0 -81 -27 -99 -70 -11
-26 -18 -30 -49 -30 -30 0 -45 -8 -81 -45 -24 -25 -51 -45 -59 -45 -9 0 4 20
33 49 l48 48 -27 7 c-14 4 -30 4 -35 1 -5 -3 -11 -1 -15 5 -12 19 -39 10 -77
-27 -21 -20 -41 -34 -44 -30 -4 4 10 22 31 40 l38 33 -64 25 c-73 28 -81 45
-54 114 18 48 53 71 128 83 57 10 622 7 672 -3z"/>
<path d="M278 592 l-48 -3 0 -57 c0 -56 2 -59 50 -107 36 -36 50 -57 50 -77 0
-23 -4 -28 -25 -28 -21 0 -25 5 -25 30 0 25 -4 30 -25 30 -24 0 -25 -3 -25
-55 l0 -55 74 0 c83 0 86 3 86 74 0 37 -6 47 -55 96 -62 61 -73 100 -30 100
20 0 25 -5 25 -26 0 -22 4 -25 28 -22 25 3 27 6 27 48 0 41 -2 45 -30 50 -16
3 -51 4 -77 2z"/>
<path d="M798 592 l-58 -3 0 -159 0 -160 25 0 c23 0 24 3 27 68 l3 67 33 3
c26 3 32 7 32 28 0 21 -5 24 -35 24 -34 0 -35 1 -35 39 0 40 0 40 43 43 34 2
43 7 45 24 4 26 -7 30 -80 26z"/>
<path d="M410 430 l0 -160 30 0 c28 0 30 3 31 38 l0 37 16 -38 c12 -31 20 -37
44 -37 l29 0 -27 55 -27 55 22 45 c27 56 27 55 -3 55 -16 0 -29 -9 -39 -27
-15 -27 -15 -24 -16 55 l0 82 -30 0 -30 0 0 -160z"/>
<path d="M1070 430 l0 -160 25 0 25 0 0 160 0 160 -25 0 -25 0 0 -160z"/>
<path d="M1150 430 l0 -160 25 0 25 0 0 160 0 160 -25 0 -25 0 0 -160z"/>
<path d="M570 468 c0 -7 11 -53 23 -103 14 -55 21 -100 16 -115 -13 -47 -10
-60 15 -60 22 0 26 9 55 128 18 70 34 135 37 145 5 15 1 18 -22 15 -26 -3 -30
-8 -39 -58 -12 -58 -17 -54 -31 23 -5 31 -10 37 -30 37 -13 0 -24 -6 -24 -12z"/>
<path d="M907 474 c-4 -4 -7 -20 -7 -36 0 -21 5 -28 20 -28 11 0 23 7 26 15 9
22 44 19 44 -4 0 -16 -8 -20 -42 -23 l-43 -3 -3 -62 -3 -63 71 0 71 0 -3 103
-3 102 -60 3 c-34 2 -64 0 -68 -4z m83 -139 c0 -18 -5 -25 -20 -25 -15 0 -20
7 -20 25 0 18 5 25 20 25 15 0 20 -7 20 -25z"/>
<path d="M503 124 c-3 -8 4 -25 17 -39 13 -14 20 -28 15 -32 -4 -5 -10 -2 -12
5 -6 15 -23 6 -23 -14 0 -9 11 -14 30 -14 25 0 30 4 30 23 0 12 -9 31 -21 40
-11 10 -18 21 -14 25 4 4 10 1 12 -5 7 -20 23 -15 23 7 0 25 -47 28 -57 4z"/>
<path d="M830 116 c0 -13 7 -29 15 -36 8 -7 15 -18 14 -24 0 -7 -2 -6 -6 2 -8
19 -23 14 -23 -8 0 -15 7 -20 25 -20 20 0 25 5 25 24 0 13 -7 29 -15 36 -8 7
-15 17 -15 22 0 6 7 5 15 -2 13 -10 15 -9 15 9 0 16 -6 21 -25 21 -20 0 -25
-5 -25 -24z"/>
<path d="M890 86 c0 -49 2 -53 23 -54 20 0 23 5 19 32 -3 24 -2 28 8 20 6 -7
12 -28 13 -48 1 -47 13 -46 26 2 13 46 14 62 2 62 -5 0 -12 -6 -14 -12 -4 -10
-6 -10 -6 0 -1 6 -12 12 -26 12 -18 0 -25 5 -25 20 0 11 -4 20 -10 20 -5 0
-10 -24 -10 -54z"/>
<path d="M570 120 c0 -5 5 -10 10 -10 6 0 10 5 10 10 0 6 -4 10 -10 10 -5 0
-10 -4 -10 -10z"/>
<path d="M570 65 c0 -19 5 -35 10 -35 6 0 10 16 10 35 0 19 -4 35 -10 35 -5 0
-10 -16 -10 -35z"/>
<path d="M600 65 c0 -41 17 -47 23 -7 l4 27 2 -27 c0 -16 5 -28 10 -28 5 0 12
12 14 28 l4 27 2 -27 c1 -25 5 -28 36 -28 33 0 35 2 35 35 l0 35 -65 0 -65 0
0 -35z m107 -7 c-3 -8 -6 -5 -6 6 -1 11 2 17 5 13 3 -3 4 -12 1 -19z"/>
<path d="M740 65 c0 -41 17 -47 23 -7 l4 27 2 -27 c2 -41 21 -34 21 7 0 31 -3
35 -25 35 -22 0 -25 -4 -25 -35z"/>
</g>
</svg>
